<svg xmlns="http://www.w3.org/2000/svg" width="65.837" height="66"><path data-name="Path 1" d="M46.998 27.263h-8.4v-8.365a18.8 18.8 0 00-18.8-18.8h-.9a18.8 18.8 0 00-18.8 18.8v46.87h46.839a18.831 18.831 0 0018.831-18.831v-.9a18.771 18.771 0 00-18.771-18.775z" fill="#004697"/><path data-name="Path 2" d="M10.398 18.978a6.4 6.4 0 011.744-.182h3.809v-3.055h1.844v-1.679H6.771v1.679h7.366v1.348h-2.2a5.428 5.428 0 00-3.364.834 3.182 3.182 0 00-1.059 2.625 3.255 3.255 0 001.261 2.877 6.424 6.424 0 003.628.846 10.22 10.22 0 002.032-.175v1.844h1.814v-2.774a1.693 1.693 0 00.372-1.063 1.162 1.162 0 00-.514-1.05 2.583 2.583 0 00-1.4-.3h-.191l-.669 1.618a9.011 9.011 0 01-3.362-.063 1.371 1.371 0 01-.831-.549 2.181 2.181 0 01-.253-1.151 2.154 2.154 0 01.236-1.106 1.261 1.261 0 01.761-.524z" fill="#fff"/><path data-name="Path 3" d="M36.04 31.482H16.955v-.91a2.9 2.9 0 00-.625-1.959 3.719 3.719 0 00-2.048-1.039 18.109 18.109 0 00-3.74-.306h-.275v1.712h.275a21.968 21.968 0 013.041.152 2.122 2.122 0 011.229.5 1.707 1.707 0 01.329 1.162v.69h-8.37v1.677h8.185v1.475a8.642 8.642 0 00-1.03-.246 10.3 10.3 0 00-1.745-.132 6.04 6.04 0 00-3.377.753 3.571 3.571 0 00-.011 5.183 5.849 5.849 0 003.37.763 10.312 10.312 0 001.764-.132 7.753 7.753 0 001.034-.258v2.006h1.814v-9.418h8.138v1.535h-.228a8.874 8.874 0 00-4.374.836 3.119 3.119 0 00-1.462 2.9 3.236 3.236 0 001.328 2.887 6.585 6.585 0 003.671.868 9.626 9.626 0 003.457-.566l.166-.066v-1.816l-.385.151a8.7 8.7 0 01-3.161.527 4.723 4.723 0 01-2.463-.492 2.037 2.037 0 01-.342-2.745 2.338 2.338 0 011.238-.589 13.077 13.077 0 012.515-.189h1.855v-3.245h4.992a3.4 3.4 0 01.579.922 2.936 2.936 0 01.26 1.174 1.073 1.073 0 01-.628 1.1 6.622 6.622 0 01-2.428.318h-1.021v1.402l4.049 4.51h2.13v-.35l-3.588-3.89a4.722 4.722 0 002.417-.7 2.524 2.524 0 00.948-2.179 5.654 5.654 0 00-.184-1.421 5.8 5.8 0 00-.3-.875h2.084zm-21.085 4.755v2.424l-3.359-2.683c.234-.01.5-.015.79-.015a13.8 13.8 0 011.591.076 6.365 6.365 0 01.981.2zm-1.744 2.994q-.352.016-.772.015a9.348 9.348 0 01-1.932-.148 1.239 1.239 0 01-.782-.443 1.9 1.9 0 01-.23-1.05 2.4 2.4 0 01.12-.819.927.927 0 01.174-.3l3.425 2.741z" fill="#59ffb9"/><path data-name="Path 4" d="M15.026 48.175a1.337 1.337 0 00.944-.323 1.335 1.335 0 000-1.81 1.541 1.541 0 00-1.889 0 1.335 1.335 0 000 1.81 1.321 1.321 0 00.945.323z" fill="#fff"/><path data-name="Path 5" d="M20.384 48.9a3.412 3.412 0 01-.267-1.281 1.2 1.2 0 01.438-1.073 3.4 3.4 0 011.8-.318 9.007 9.007 0 013.042.489 9.426 9.426 0 012.78 1.66l.461.382v-1.876l-.091-.073a9.748 9.748 0 00-6.229-2.262 5.086 5.086 0 00-2.951.731 2.468 2.468 0 00-1.062 2.135 4.038 4.038 0 00.278 1.486H6.771v1.677H14.1v1.115h-3.073a3.706 3.706 0 00-2.38.61 2.26 2.26 0 00-.761 1.849 2.567 2.567 0 00.747 1.965 2.385 2.385 0 00.692.441l.028.012c.034.014.066.028.105.041l.016.006c.217.066.527.132.636.152l.041.007a5.668 5.668 0 001.531-.024c.312-.042.618-.091.91-.144a7.75 7.75 0 011.336-.166 1.068 1.068 0 01.684.173.78.78 0 01.2.61.885.885 0 01-.433.846 3.957 3.957 0 01-1.844.281 7.957 7.957 0 01-1.892-.187l-.562-1.342a2.231 2.231 0 00-1.431-.027l-.027.008a.915.915 0 00-.1.044l-.036.017a.8.8 0 00-.07.042 1.139 1.139 0 00-.527 1.036 1.561 1.561 0 00.392 1.054v2.685h1.813v-1.773a10.407 10.407 0 002.254.215 5.957 5.957 0 003.271-.7 2.573 2.573 0 001.078-2.3 2.491 2.491 0 00-.6-1.764 2.81 2.81 0 00-2.108-.667 6.843 6.843 0 00-.925.066c-.308.042-.6.09-.861.142a7.958 7.958 0 01-1.394.167 1.353 1.353 0 01-.811-.187.827.827 0 01-.217-.674.7.7 0 01.25-.627 2.259 2.259 0 011.15-.188h4.777v-2.822h2.819v9.418h1.813v-9.418h8.233v1.114h-3.095a3.706 3.706 0 00-2.38.61 2.241 2.241 0 00-.759 1.834 2.594 2.594 0 00.745 1.972 3.037 3.037 0 002.152.706 6.865 6.865 0 00.9-.065c.32-.042.634-.09.937-.142a8.176 8.176 0 011.323-.167 1.013 1.013 0 01.664.173.776.776 0 01.2.61.869.869 0 01-.461.842 4.576 4.576 0 01-2.016.285 10.942 10.942 0 01-4.2-.742l-.389-.161v1.812l.144.071a7.734 7.734 0 001.984.579 14.555 14.555 0 002.5.215 5.689 5.689 0 003.257-.731 2.6 2.6 0 001.073-2.275 2.477 2.477 0 00-.6-1.749 2.748 2.748 0 00-2.071-.666 6.879 6.879 0 00-.915.066c-.309.041-.61.088-.9.14-.108.011-.316.044-.628.094a5.046 5.046 0 01-.816.074 1.257 1.257 0 01-.773-.187.834.834 0 01-.217-.675.7.7 0 01.248-.627 2.268 2.268 0 011.151-.188h4.753v-2.822h3.615a2.63 2.63 0 01.562 1.515.807.807 0 01-.329.749 2.971 2.971 0 01-1.479.236h-.8v.481a3.423 3.423 0 001.288 2.909 5.878 5.878 0 003.582.954 8.8 8.8 0 002.273-.279v2.852h1.815v-9.418h3.021v9.418h1.815v-9.418h1.963v-1.674zm18.956 6.543a10.273 10.273 0 01-2.162.211 6.261 6.261 0 01-2.206-.306 1.639 1.639 0 01-.823-.664 3.2 3.2 0 001.787-.563 2.158 2.158 0 00.755-1.807 3.176 3.176 0 00-.18-1.082 3.6 3.6 0 00-.329-.652h3.156v4.865z" fill="#fff"/><g data-name="Group 51"><path data-name="Path 6" d="M47.018 27.3H38.6v-8.406A18.871 18.871 0 0019.754 0h-.908A18.87 18.87 0 000 18.894V66h46.96a18.9 18.9 0 0018.877-18.924v-.91A18.84 18.84 0 0047.021 27.3" fill-rule="evenodd" fill="#004697"/></g><path data-name="Path 7" d="M12.982 39.153c0-1.857-.461-3-1.957-3s-1.955 1.143-1.955 3 .461 3 1.955 3 1.957-1.143 1.957-3m2.469-.011c0 3.389-1.475 4.814-3.754 4.814a2.6 2.6 0 01-2.511-1.138v.992H6.749V32.273h-.922v-1.8h2.964a.4.4 0 01.4.4v4.486a3.041 3.041 0 012.532-1.038c2.26 0 3.734 1.436 3.734 4.823m14.823 4.792zm2-1.8h-1.65c-1.141-.139-1.145-1.02-1.145-1.877v-4h2.372v-1.8h-2.371v-2.766h-2.429v8.912c0 .9 0 3.283 3.227 3.332h2.088v-1.8h-.088zm6.269 0h-1.647c-1.14-.139-1.144-1.02-1.144-1.877v-4h2.371v-1.8h-2.372v-2.766H33.32v8.912c0 .9 0 3.283 3.227 3.332h2.088v-1.8zm5.262-6.156c-1.266 0-1.851.734-1.844 2.434h3.683c.011-1.7-.576-2.434-1.844-2.434m-4.372 3.167c0-3.114 1.454-4.865 4.445-4.865 2.667 0 4.268 1.383 4.268 4.874v.467a.516.516 0 01-.515.508h-5.64c-.011 1.408 1.067 2.027 2.741 2.027a5.506 5.506 0 002.112-.438v1.82a5.052 5.052 0 01-2.457.461c-2.939 0-4.948-1.206-4.948-4.856m-18.215-3.17c-1.266 0-1.851.734-1.844 2.434h3.683c.011-1.7-.576-2.434-1.844-2.434m-4.374 3.165c0-3.114 1.454-4.865 4.448-4.865 2.666 0 4.267 1.383 4.267 4.874v.467a.516.516 0 01-.516.508h-5.637c-.012 1.4 1.067 2.024 2.741 2.024a5.514 5.514 0 002.112-.438v1.83a5.061 5.061 0 01-2.458.461c-2.939 0-4.948-1.207-4.948-4.856m38.276-4.856a2.632 2.632 0 00-2.518 1.668v-1.1a.4.4 0 00-.4-.4h-3.018v1.8h1.087v7.552H52.6v-4.292a3.426 3.426 0 01.922-2.579 2.41 2.41 0 011.591-.484h.725v-2.173z" fill-rule="evenodd" fill="#59ffb9"/><path data-name="Path 8" d="M6.681 48.398a1.308 1.308 0 111.309 1.3 1.264 1.264 0 01-1.309-1.3zm2.545 11.856H6.798v-9.352h2.43v9.352zm23.365-11.851a1.308 1.308 0 111.308 1.3 1.263 1.263 0 01-1.308-1.3zm2.544 11.851h-2.426v-9.352h2.43zm-14.479 0h-2.857a.4.4 0 01-.4-.4v-4.947c0-.818 0-2.318-1.465-2.318-1.735 0-1.844 2.119-1.844 3.251v4.413h-2.329v-7.548h-.92v-1.8h2.817a.4.4 0 01.4.4v.866a2.688 2.688 0 012.707-1.427c3.075 0 3.075 2.59 3.075 3.86v3.85h.82zm7.545-4.668c0-1.866-.461-3.02-1.956-3.02s-1.957 1.155-1.957 3.02.461 3.011 1.957 3.011 1.956-1.143 1.956-3.015zm2.322 4.668h-2.442l.009-.992a2.6 2.6 0 01-2.514 1.139c-2.281 0-3.754-1.427-3.754-4.815s1.475-4.824 3.734-4.824a3.046 3.046 0 012.532 1.039v-4.888h2.437zm12.958-4.657c0-1.856-.461-3-1.956-3s-1.956 1.143-1.956 3 .461 3 1.956 3 1.956-1.143 1.956-3.004zm2.322 4.657h-2.249v-1.12a3.016 3.016 0 01-2.72 1.266c-2.28 0-3.734-1.416-3.734-4.8s1.454-4.8 3.745-4.8a2.955 2.955 0 012.7 1.259v-1.165h2.258zM11.979 25.695h-1.647c-1.142-.139-1.146-1.02-1.146-1.877v-4h2.375v-1.8h-2.37v-2.774H6.754v8.916c0 .9 0 3.283 3.227 3.331h2.092v-1.8zm10.573 1.8h-2.885a.4.4 0 01-.4-.4v-4.948c0-.817 0-2.318-1.465-2.318-1.737 0-1.737 2.119-1.737 3.252v4.413h-2.437v-11.54h-.922v-1.8h2.964a.4.4 0 01.4.4v4.579a2.811 2.811 0 012.563-1.154c3.076 0 3.076 2.59 3.076 3.86v3.848h.848zm5.32-7.961c-1.267 0-1.853.734-1.844 2.437h3.683c.01-1.7-.576-2.437-1.844-2.437m-4.373 3.167c0-3.115 1.454-4.867 4.446-4.867 2.668 0 4.268 1.383 4.268 4.874v.469a.516.516 0 01-.516.506H26.05c-.011 1.406 1.067 2.026 2.741 2.026a5.5 5.5 0 002.112-.439v1.825a5.048 5.048 0 01-2.457.461c-2.94 0-4.948-1.2-4.948-4.855" fill-rule="evenodd" fill="#fff"/></svg>