<svg width="481" height="72" viewBox="0 0 481 72" fill="none" xmlns="http://www.w3.org/2000/svg">
<path d="M45.8548 46.4779H0V0.623047H45.8548V46.4779Z" fill="#ED1C24"/>
<path d="M11.1683 22.5314H15.8042C17.1493 22.5314 18.2303 21.5706 18.2303 20.2495V18.8323C18.2303 18.8003 18.2303 18.7762 18.2303 18.7602C18.4865 18.7602 18.7427 18.7602 18.9989 18.7602V27.3835C18.7427 27.3835 18.4865 27.3835 18.2303 27.3835C18.2303 27.2234 18.2303 27.0793 18.2303 26.9512V25.8702C18.2303 24.5491 17.1493 23.6364 15.8042 23.6364H14.5551H12.9218H10.832V28.5605V32.3798C10.832 32.9082 10.9041 32.9803 10.9761 33.1484C11.1683 33.5327 12.4173 33.7489 12.8017 33.7489C14.6032 33.845 16.4527 33.9411 18.2062 33.5087C18.7827 33.3646 19.3112 33.1965 19.8396 32.9322C21.497 32.1155 22.674 31.1307 22.8902 28.9929H23.2745V34.6857H4.32251V34.3014C4.92302 34.3014 6.82062 34.3735 7.25299 33.5568C7.33306 33.4126 7.37309 33.0203 7.37309 32.3798V14.7008C7.37309 14.0282 7.32505 13.6119 7.22897 13.4517C7.18093 13.3556 7.03681 13.2596 6.79661 13.1635C6.12404 12.9233 5.06714 12.7551 4.32251 12.7551V12.4189C16.717 12.4189 29.1195 12.4189 41.53 12.4189V18.544V18.6401H41.0736C41.0576 18.6081 41.0496 18.5761 41.0496 18.544C40.7854 16.6945 40.6172 15.4214 39.2961 14.4125C38.1912 13.5718 36.1014 13.2836 34.492 13.2836C34.0597 13.2836 33.8195 13.3076 33.7714 13.3556C33.6753 13.4277 33.6033 13.4517 33.6033 13.9802V32.3798C33.6033 33.0363 33.6513 33.4607 33.7474 33.6528C33.7794 33.7489 33.9316 33.845 34.2038 33.9411C34.9484 34.2293 36.3416 34.3014 37.1583 34.3014V34.6857H26.5893V34.3014C27.382 34.3014 28.7752 34.2293 29.4958 33.9411C29.752 33.845 29.9202 33.7169 30.0002 33.5568C30.0803 33.4126 30.1203 33.0203 30.1203 32.3798V14.0282C30.1203 13.4277 30.0723 13.3557 29.9522 13.3076C29.8881 13.2916 29.6559 13.2836 29.2556 13.2836C27.8384 13.2836 25.8687 13.5718 24.8358 14.3885C23.6589 15.3013 23.2745 17.1028 23.0824 18.544H22.602C22.4819 17.6553 22.4098 16.9107 22.3137 16.2861C21.9294 14.0522 20.5122 13.788 18.3744 13.4758C17.0292 13.2836 15.4919 13.2596 13.9787 13.2836C13.0178 13.2836 12.0811 13.3557 11.3604 13.6199C11.1443 13.6679 11.0242 13.812 10.9521 13.9802C10.88 14.1243 10.832 14.2924 10.832 14.941V17.5592V22.5314" fill="white"/>
<path d="M317.813 41.0507L314.883 33.4362L314.234 34.7333H306.115V32.2112H312.673L315.195 27.1669L317.429 33.0039L321.104 19.7686L323.986 32.2112H329.919V34.7333H321.969L320.888 30.0013L317.813 41.0507Z" fill="#ED1C24"/>
<path fill-rule="evenodd" clip-rule="evenodd" d="M333.163 30.9634C333.163 39.5387 326.389 46.4806 318.006 46.4806C309.647 46.4806 302.873 39.5387 302.873 30.9634C302.873 22.3882 309.647 15.4463 318.006 15.4463C326.389 15.4463 333.163 22.3882 333.163 30.9634ZM329.055 30.9634C329.055 24.7181 324.107 19.6498 318.006 19.6498C311.929 19.6498 306.98 24.7181 306.98 30.9634C306.98 37.2087 311.929 42.277 318.006 42.277C324.107 42.277 329.055 37.2087 329.055 30.9634Z" fill="#1A1A1A"/>
<path d="M424.438 43.1875C425.063 43.1875 425.543 43.3636 425.879 43.7159C426.216 44.0682 426.384 44.5086 426.384 45.0371C426.384 45.5655 426.216 46.0059 425.879 46.3582C425.543 46.6945 425.063 46.8626 424.438 46.8626C423.83 46.8626 423.357 46.6945 423.021 46.3582C422.669 46.0219 422.493 45.5815 422.493 45.0371C422.493 44.5086 422.661 44.0682 422.997 43.7159C423.333 43.3636 423.814 43.1875 424.438 43.1875Z" fill="#1A1A1A"/>
<path d="M435.775 44.3169C436.608 44.3169 437.297 44.0767 437.841 43.5963C438.402 43.0999 438.698 42.4994 438.73 41.7948H441.877C441.845 42.7075 441.556 43.5723 441.012 44.389C440.467 45.1896 439.731 45.8222 438.802 46.2866C437.873 46.751 436.872 46.9832 435.8 46.9832C433.718 46.9832 432.068 46.3106 430.851 44.9655C429.634 43.6203 429.026 41.7547 429.026 39.3687V39.0324C429.026 36.7745 429.634 34.957 430.851 33.5798C432.052 32.2187 433.702 31.5381 435.8 31.5381C437.561 31.5381 439.002 32.0585 440.123 33.0994C441.244 34.1243 441.829 35.4774 441.877 37.1588H438.73C438.698 36.3101 438.402 35.6055 437.841 35.0451C437.297 34.5006 436.608 34.2284 435.775 34.2284C434.687 34.2284 433.846 34.6207 433.253 35.4054C432.677 36.19 432.381 37.383 432.365 38.9844V39.5128C432.365 41.1302 432.661 42.3312 433.253 43.1159C433.83 43.9166 434.671 44.3169 435.775 44.3169Z" fill="#1A1A1A"/>
<path fill-rule="evenodd" clip-rule="evenodd" d="M443.224 39.1285C443.224 37.6713 443.512 36.3582 444.089 35.1892C444.665 34.0202 445.474 33.1234 446.515 32.4989C447.555 31.8584 448.756 31.5381 450.118 31.5381C452.135 31.5381 453.769 32.1866 455.018 33.4837C456.267 34.7808 456.939 36.4943 457.035 38.6241L457.059 39.4168C457.059 40.89 456.779 42.2031 456.219 43.3561C455.642 44.5091 454.834 45.4058 453.793 46.0464C452.736 46.6709 451.519 46.9832 450.142 46.9832C448.044 46.9832 446.362 46.2866 445.097 44.8934C443.848 43.4842 443.224 41.6186 443.224 39.2967V39.1285ZM446.563 39.4168C446.563 40.9541 446.875 42.1551 447.499 43.0198C448.14 43.8845 449.021 44.3169 450.142 44.3169C451.279 44.3169 452.159 43.8765 452.784 42.9958C453.408 42.115 453.721 40.826 453.721 39.1285C453.721 37.6232 453.4 36.4302 452.76 35.5495C452.103 34.6687 451.223 34.2284 450.118 34.2284C449.029 34.2284 448.164 34.6607 447.523 35.5255C446.883 36.3902 446.563 37.6873 446.563 39.4168Z" fill="#1A1A1A"/>
<path d="M462.463 31.8263L462.559 33.3876C463.6 32.1546 465.034 31.5381 466.859 31.5381C468.845 31.5381 470.206 32.2987 470.943 33.82C472.031 32.2987 473.553 31.5381 475.506 31.5381C477.156 31.5381 478.381 31.9945 479.181 32.9072C479.982 33.82 480.391 35.1571 480.407 36.9186V46.7189H477.068V37.0147C477.068 36.0699 476.86 35.3813 476.443 34.949C476.027 34.5006 475.346 34.2764 474.401 34.2764C473.633 34.2764 473.008 34.4846 472.528 34.9009C472.047 35.3013 471.711 35.8377 471.519 36.5103L471.543 46.7189H468.18V36.9186C468.132 35.1571 467.243 34.2764 465.514 34.2764C464.169 34.2764 463.216 34.8289 462.656 35.9338V46.7189H459.317V31.8263H462.463Z" fill="#1A1A1A"/>
<path d="M361.507 21.8342C361.507 24.02 360.57 25.5573 358.721 26.374C358.264 26.6142 357.664 26.7343 356.919 26.7343C355.766 26.7343 354.781 26.326 353.989 25.5333C353.172 24.7406 352.764 23.5636 352.764 22.0503C352.764 21.0415 353.148 20.0567 353.869 19.0718C354.221 18.6234 354.605 18.2872 355.021 18.063C354.797 18.0149 354.541 17.9909 354.253 17.9909C353.22 17.9909 352.115 18.8316 350.962 20.5371C349.305 22.867 348.488 25.9657 348.488 29.6888V42.5637C348.488 43.3804 348.536 43.7647 348.584 43.9089C348.632 43.9409 348.712 43.9809 348.824 44.029C349.377 44.1971 350.842 44.4373 354.493 44.4373H355.31V46.6952H333.547V44.4373H334.364C335.661 44.4373 336.862 44.3893 337.919 44.2932C338.808 44.2211 339.576 44.077 340.249 43.8848C340.297 43.7167 340.369 43.3324 340.369 42.5637V21.0415C340.369 20.0326 340.249 19.7924 340.249 19.7924C339.937 19.3361 339.769 19.24 339.769 19.24C339.264 19.1199 337.919 18.9517 334.364 18.9517H333.547V16.7419L348.488 15.5889V20.1287C348.616 19.9045 348.76 19.6803 348.92 19.4561C350.578 16.934 352.74 15.6609 355.31 15.6609C356.319 15.6609 357.4 15.9732 358.528 16.6218C359.705 17.2943 360.522 18.1591 360.93 19.1919C361.315 20.1768 361.507 21.0655 361.507 21.8342Z" fill="#1A1A1A"/>
<path d="M382.309 44.4376H383.125V46.6955H361.387V44.4376H362.204C363.525 44.4376 364.702 44.3896 365.735 44.2935C366.623 44.2215 367.416 44.0773 368.065 43.8852C368.113 43.717 368.185 43.3567 368.185 42.564V5.6688C368.185 4.65994 368.017 4.32366 367.944 4.22758C367.704 3.89129 367.536 3.84325 367.512 3.81923C367.032 3.69913 365.711 3.53099 362.276 3.53099H361.435V1.32112L376.304 0V42.564C376.304 43.3807 376.376 43.741 376.4 43.9092C376.448 43.9412 376.528 43.9812 376.64 44.0293C377.192 44.1974 378.658 44.4376 382.309 44.4376Z" fill="#1A1A1A"/>
<path fill-rule="evenodd" clip-rule="evenodd" d="M418.123 43.7414V45.9273L403.518 47.4165V42.8527C403.486 42.9167 403.446 42.9808 403.398 43.0448C401.837 45.8792 399.603 47.3205 396.768 47.3205C393.213 47.3205 390.259 45.9513 387.953 43.237C385.479 40.3546 384.23 36.3432 384.23 31.3469C384.23 27.888 385.383 24.5252 387.641 21.3785C390.307 17.5833 393.742 15.6616 397.873 15.6616C400.251 15.6616 402.149 16.9587 403.494 19.5289C403.51 19.5449 403.518 19.5609 403.518 19.577V5.66919C403.518 4.63632 403.326 4.30003 403.278 4.22797C403.134 4.03581 402.918 3.91571 402.605 3.84365C401.524 3.62747 398.978 3.53138 395.039 3.53138H394.222V1.32151L394.991 1.24945L411.637 0.0244141V41.8919C411.637 42.7086 411.685 43.0689 411.733 43.213C411.781 43.245 411.861 43.285 411.973 43.3331C412.526 43.5252 413.919 43.7414 417.282 43.7414H418.123ZM403.206 31.2749C403.206 26.8071 402.677 23.3722 401.693 21.0902C400.756 19.0005 399.579 17.9916 398.09 17.9916C396.216 17.9916 394.991 18.8083 394.27 20.5618C393.478 22.5074 393.069 26.1585 393.069 31.419C393.069 36.199 393.31 39.5859 393.79 41.4595C394.438 43.9096 395.64 45.0625 397.537 45.0625C398.762 45.0625 399.939 44.0297 401.02 41.9639C402.461 39.2736 403.206 35.6946 403.206 31.2749Z" fill="#1A1A1A"/>
<path fill-rule="evenodd" clip-rule="evenodd" d="M136.171 33.8917H138.381V34.7324C138.381 38.3835 137.179 41.4101 134.825 43.764C132.472 46.118 129.301 47.3191 125.434 47.3191C122.143 47.3191 119.14 46.07 116.474 43.5959C113.327 40.6894 111.718 36.8462 111.718 32.1622C111.718 27.166 113.279 23.0105 116.378 19.8158C119.092 17.0534 122.215 15.6602 125.626 15.6602C128.82 15.6602 131.511 16.597 133.624 18.4706C136.675 21.1849 138.236 25.6527 138.236 31.6818V32.5225H120.533C120.605 36.8702 121.158 40.0649 122.191 42.0346C123.224 43.9802 124.737 44.917 126.803 44.917C129.109 44.917 131.174 44.1244 132.952 42.563C135.09 40.6654 136.171 38.0232 136.171 34.7324V33.8917ZM120.533 30.0244H130.742C130.694 26.0851 130.31 23.0105 129.589 20.9207C128.916 18.903 127.932 17.9662 126.514 17.9662C124.329 17.9662 122.887 18.879 121.999 20.8246C121.086 22.7943 120.605 25.8929 120.533 30.0244Z" fill="#1A1A1A"/>
<path fill-rule="evenodd" clip-rule="evenodd" d="M172.059 36.654C172.059 37.5668 172.083 38.4796 172.107 39.3683C172.131 42.2508 171.746 44.1724 171.002 45.2533C169.993 46.6225 168.071 47.3191 165.285 47.3191C163.123 47.3191 161.466 46.9347 160.361 46.1421C159.496 45.5175 158.799 44.6288 158.319 43.4518C157.334 44.917 156.061 45.9739 154.524 46.5744C153.275 47.0789 151.617 47.3191 149.6 47.3191C147.51 47.3191 145.684 46.8146 144.123 45.8058C141.913 44.4126 140.784 42.2748 140.784 39.4644C140.784 36.7501 141.865 34.4442 143.955 32.5706C145.997 30.8171 148.519 29.7842 151.425 29.544C154.692 29.2798 156.085 28.8474 156.662 28.5351C157.334 28.1748 157.67 27.2861 157.67 25.8689V21.8575C157.67 19.7437 157.238 18.951 156.998 18.6868C156.806 18.4706 156.109 17.9902 153.827 17.9902C152.386 17.9902 151.113 18.2544 150.032 18.8069C149.528 19.0711 149.095 19.3834 148.783 19.7197C149.584 19.8798 150.256 20.3042 150.801 20.9928C151.473 21.8095 151.81 22.7943 151.81 23.8512C151.81 25.0762 151.353 26.1331 150.488 26.9258C149.648 27.6944 148.639 28.1028 147.51 28.1028C146.717 28.1028 146.045 27.8866 145.444 27.4783C143.859 26.4694 143.066 25.1243 143.066 23.4909C143.066 22.7462 143.21 21.9536 143.523 21.0408C144.267 18.9751 146.045 17.4858 148.879 16.573C150.777 15.9725 152.746 15.6602 154.692 15.6602C158.247 15.6602 161.009 16.3568 162.907 17.726C164.684 19.0471 165.573 20.7285 165.573 22.7222V37.9031C165.573 41.4101 165.693 42.491 165.765 42.8273C166.078 44.3165 166.774 44.5087 167.447 44.5087C168.287 44.5087 168.768 44.1244 169.08 43.2116C169.464 42.0826 169.657 40.3772 169.657 38.1433C169.657 37.5188 169.641 36.8862 169.609 36.2457C169.593 35.6051 169.585 34.9326 169.585 34.228V32.7867H172.059V36.654ZM157.454 30.8651C157.006 31.0733 156.509 31.2174 155.965 31.2975C154.876 31.4736 153.827 31.6258 152.818 31.7539C151.737 32.0181 150.873 32.6426 150.224 33.6275C149.407 34.8525 148.975 36.654 148.975 38.984C148.975 42.1066 149.359 43.4518 149.672 44.0042C150.056 44.6768 150.608 45.0131 151.473 45.0131C152.987 45.0131 154.332 44.3646 155.581 43.0675C156.83 41.7944 157.454 40.209 157.454 38.3595V30.8651Z" fill="#1A1A1A"/>
<path d="M193.34 44.4376H194.156V46.6955H172.394V44.4376H173.235C174.532 44.4376 175.733 44.3896 176.766 44.2935C177.654 44.2215 178.423 44.0773 179.095 43.8852C179.144 43.717 179.216 43.3567 179.216 42.564V5.6688C179.216 4.65994 179.047 4.32366 178.975 4.22758C178.711 3.89129 178.567 3.84325 178.543 3.81923C178.063 3.69913 176.741 3.53099 173.283 3.53099H172.466V1.32112L187.334 0V42.564C187.334 43.3807 187.383 43.741 187.431 43.9092C187.479 43.9412 187.559 43.9812 187.671 44.0293C188.223 44.1974 189.688 44.4376 193.34 44.4376Z" fill="#1A1A1A"/>
<path d="M216.256 34.3726C216.256 35.3814 216.28 36.3903 216.328 37.3751C216.328 40.81 215.919 43.116 215.103 44.4611C213.95 46.3587 211.74 47.3195 208.545 47.3195C205.567 47.3195 203.333 46.5509 201.891 45.0616C200.474 43.5964 199.754 41.4826 199.754 38.7923V20.0564H194.229V19.1677H193.58L194.229 18.9515V17.9667L194.854 17.7985C198.384 16.9578 201.075 14.868 202.852 11.6493C204.318 9.00708 205.038 6.00454 205.038 2.68974V1.87305H207.873V16.4054H215.775V20.0564H207.873V37.9036C207.873 40.9061 207.993 42.0591 208.113 42.5155C208.473 43.8846 209.146 44.5092 210.347 44.5092C211.812 44.5092 212.725 43.7405 213.229 42.0831C213.589 40.786 213.782 38.2398 213.782 34.4927V30.3852H216.256V34.3726Z" fill="#1A1A1A"/>
<path fill-rule="evenodd" clip-rule="evenodd" d="M302.489 15.6602V17.9902H301.672C300.135 17.9902 298.958 18.3505 298.141 19.0471C297.564 19.5756 296.556 21.0408 295.138 25.1002L287.644 47.0548H285.146L285.05 46.7666L279.261 27.2621L273.28 47.0548H270.806L270.71 46.7906L260.477 20.0079C259.949 18.6628 259.54 18.3505 259.372 18.2785C259.18 18.2064 258.411 17.9902 255.601 17.9902H254.76V15.6602H289.253V16.525H289.35V15.6602H302.489ZM277.964 22.9384L277.099 19.9599C276.643 18.4466 276.379 18.1824 276.355 18.1584C276.355 18.1584 276.066 17.9902 274.721 17.9902H272.103C271.062 17.9902 270.005 17.9982 268.932 18.0142C268.5 18.0142 268.236 18.0863 268.116 18.1343C268.14 18.2544 268.212 18.5427 268.452 19.1192L274.289 35.0927L277.964 22.9384ZM293.937 19.9118C293.937 19.4314 293.937 17.9662 290.142 17.9662H289.326V16.6691L289.253 16.6451V17.9662H288.437C287.38 17.9662 286.339 17.9822 285.314 18.0142C284.882 18.0142 284.666 18.0863 284.569 18.1103C284.593 18.2544 284.642 18.5667 284.882 19.2393L289.326 34.4922L293.145 23.3708C293.673 21.8575 293.937 20.7045 293.937 19.9118Z" fill="#1A1A1A"/>
<path d="M254.975 44.4376H255.792V46.6955H238.473V44.3896C238.858 44.3736 239.258 44.3416 239.675 44.2935C240.443 44.2215 241.164 44.1013 241.764 43.8852C241.812 43.741 241.884 43.3567 241.884 42.564V23.8762C241.884 22.0267 241.692 20.6335 241.332 19.7687C240.827 18.5437 239.891 17.9912 238.449 17.9912C236.84 17.9912 235.423 19.1202 234.198 21.3541C233.117 23.3718 232.348 25.8939 231.964 28.8004V42.564C231.964 43.3807 232.012 43.741 232.06 43.9092C232.108 43.9252 232.188 43.9572 232.3 44.0053C232.468 44.0773 232.877 44.1974 233.958 44.2935C234.582 44.3656 235.159 44.4136 235.711 44.4136V46.6955H217.023V44.4376H217.84C219.161 44.4376 220.362 44.3896 221.395 44.2935C222.284 44.2215 223.052 44.0773 223.725 43.8852C223.773 43.717 223.845 43.3327 223.845 42.564V6.36539C223.845 5.7889 223.837 5.30049 223.821 4.90015C223.797 4.56386 223.725 4.44376 223.677 4.39572C223.341 3.8913 223.173 3.81923 223.173 3.81923C222.668 3.69913 221.347 3.53099 217.912 3.53099H217.095V1.32112L231.964 0V20.3692C232.108 20.097 232.268 19.8248 232.444 19.5526C233.91 17.2226 235.711 15.9255 237.801 15.7333C238.233 15.7093 238.594 15.7093 239.002 15.6613C239.482 15.6132 239.827 15.5892 240.035 15.5892C243.47 15.5892 246.112 16.55 247.865 18.4716C249.283 20.057 250.003 22.0026 250.003 24.2846V42.564C250.003 43.3567 250.051 43.741 250.099 43.8852C250.147 43.9172 250.235 43.9572 250.364 44.0053C250.532 44.0773 250.988 44.1974 252.165 44.2935C253.078 44.3896 254.039 44.4376 254.975 44.4376Z" fill="#1A1A1A"/>
<path d="M84.4077 0.648438H111.455V2.90635H110.614C108.596 2.90635 106.915 2.97841 105.618 3.09851C104.369 3.24263 103.384 3.4348 102.711 3.675L102.351 3.84314C102.279 4.01129 102.159 4.56375 102.159 5.95693V41.3149C102.159 42.9242 102.279 43.3806 102.327 43.4767C102.327 43.4767 102.423 43.5488 102.735 43.6689C103.576 43.9811 105.618 44.3655 110.614 44.3655H111.455V46.6954H84.4077V44.3655C87.8667 44.3174 90.2447 44.1012 91.3976 43.6689C91.7579 43.5247 91.878 43.4527 91.9021 43.4287C91.9021 43.4046 92.0462 42.9963 92.0462 41.3149V24.3085H74.055V41.3149C74.055 42.7801 74.1751 43.3086 74.2231 43.4527C74.2711 43.5007 74.4153 43.5728 74.7275 43.6929C74.9918 43.813 75.7124 44.0052 77.4418 44.1733C78.6428 44.2934 80.06 44.3414 81.6214 44.3655V46.6954H54.5745V44.3655H55.3912C57.3368 44.3655 59.0182 44.2934 60.4354 44.1733C62.2129 44.0052 62.9335 43.813 63.1737 43.6929C63.5581 43.5488 63.7502 43.4046 63.7983 43.3086C63.7983 43.3086 63.9424 42.9723 63.9424 41.3149V5.95693C63.9424 4.41963 63.7983 3.96324 63.7743 3.89118C63.7502 3.89118 63.6061 3.7951 63.2938 3.675C62.9576 3.57892 62.1889 3.38676 60.3634 3.17057C58.8741 3.00243 57.1927 2.90635 55.3912 2.90635H54.5745V0.648438H81.6214V2.90635C78.3066 2.95439 75.9526 3.19459 74.6795 3.675C74.4393 3.77108 74.3192 3.84314 74.2711 3.89118C74.1991 4.05933 74.055 4.58777 74.055 5.95693V21.4981H92.0462V5.95693C92.0462 4.32355 91.83 3.93922 91.806 3.89118C91.806 3.89118 91.6859 3.81912 91.3256 3.675C91.0373 3.57892 90.2927 3.38676 88.4191 3.17057C87.1701 3.02645 85.8009 2.95439 84.4077 2.93037V0.648438Z" fill="#1A1A1A"/>
<path d="M150.707 59.6944L149.544 59.5066V58.6113H157.369L157.511 61.2251H156.377L155.853 59.6367L152.791 59.4778V63.5644L154.903 63.521L155.172 62.2503H156.079V65.9181H155.186L154.903 64.6185L152.791 64.5607V68.3296L154.96 68.474V69.3404H149.615V68.474L150.707 68.3296V59.6944Z" fill="#727272"/>
<path d="M158.064 68.4883L159 68.3727V62.6833L158.092 62.4233V61.427L160.29 61.1238H160.332L160.686 61.4125V61.7302L160.644 62.9H160.686C160.753 62.7074 160.909 62.4716 161.154 62.1923C161.4 61.9035 161.707 61.6533 162.076 61.4414C162.454 61.22 162.86 61.1094 163.295 61.1094C163.503 61.1094 163.682 61.1382 163.833 61.196V63.3619C163.55 63.1598 163.205 63.0588 162.799 63.0588C162.109 63.0588 161.509 63.2464 160.998 63.6219V68.3583L162.643 68.4883V69.3402H158.064V68.4883Z" fill="#727272"/>
<path d="M164.314 65.3403C164.314 64.4354 164.489 63.6652 164.838 63.0299C165.198 62.3946 165.675 61.9179 166.27 61.6003C166.866 61.273 167.513 61.1094 168.212 61.1094C169.403 61.1094 170.32 61.4847 170.962 62.2356C171.614 62.9769 171.94 63.9877 171.94 65.2681C171.94 66.1827 171.761 66.9624 171.402 67.6074C171.052 68.2428 170.58 68.7193 169.984 69.037C169.398 69.345 168.751 69.4991 168.042 69.4991C166.861 69.4991 165.944 69.1284 165.292 68.3871C164.64 67.6363 164.314 66.6207 164.314 65.3403ZM168.155 68.5605C169.223 68.5605 169.757 67.5111 169.757 65.4125C169.757 64.3151 169.63 63.4823 169.375 62.9144C169.119 62.3367 168.704 62.048 168.127 62.048C167.031 62.048 166.483 63.0973 166.483 65.1958C166.483 66.2934 166.615 67.1309 166.88 67.7085C167.154 68.2765 167.579 68.5605 168.155 68.5605Z" fill="#727272"/>
<path d="M172.803 68.4731L173.596 68.3431V62.6826L172.689 62.4226V61.4263L175.042 61.123L175.212 61.2386L175.425 61.7151V62.3216C175.737 62.0135 176.181 61.744 176.758 61.5129C177.343 61.2723 177.849 61.152 178.274 61.152C178.785 61.152 179.196 61.2386 179.508 61.4118C179.829 61.5851 180.07 61.8547 180.231 62.2205C180.542 61.9317 180.953 61.6814 181.464 61.4696C181.974 61.2578 182.475 61.152 182.966 61.152C183.807 61.152 184.403 61.4022 184.752 61.9028C185.102 62.4034 185.277 63.2217 185.277 64.3576V68.3431L186.198 68.4731V69.3395H182.527V68.4731L183.264 68.3431V64.4153C183.264 63.6645 183.174 63.1399 182.995 62.8414C182.825 62.5334 182.494 62.3793 182.002 62.3793C181.738 62.3793 181.464 62.4419 181.18 62.5671C180.906 62.6826 180.66 62.827 180.443 63.0002C180.509 63.366 180.542 63.8233 180.542 64.372V68.3431L181.421 68.4731V69.3395H177.721V68.4731L178.501 68.3431V64.372C178.501 63.8714 178.468 63.4815 178.402 63.2024C178.345 62.9136 178.232 62.7067 178.062 62.5815C177.892 62.4467 177.646 62.3793 177.324 62.3793C177.022 62.3793 176.72 62.4515 176.417 62.596C176.124 62.7307 175.86 62.8943 175.623 63.0869V68.3431L176.46 68.4731V69.3395H172.803V68.4731Z" fill="#727272"/>
<path d="M193.031 59.5644L191.004 59.6367L190.451 62.7846H189.26L189.501 58.6113H198.644L198.814 62.7846H197.694L197.141 59.6367L195.143 59.5644V68.3296L197.127 68.474V69.3404H191.216V68.474L193.031 68.3296V59.5644Z" fill="#727272"/>
<path d="M200.006 58.7852L198.928 58.5974V57.8177L201.565 57.5H201.607L201.976 57.7744L201.99 60.9946L201.891 62.2508C202.184 61.9813 202.581 61.7309 203.082 61.5C203.592 61.2689 204.125 61.1534 204.683 61.1534C205.279 61.1534 205.742 61.2689 206.073 61.5C206.403 61.7213 206.635 62.0631 206.768 62.5252C206.9 62.9873 206.965 63.6034 206.965 64.3735V68.3445L207.873 68.4746V69.3409H204.145V68.4746L204.967 68.3445V64.3735C204.967 63.8729 204.934 63.483 204.867 63.2038C204.802 62.9247 204.679 62.7177 204.5 62.5829C204.329 62.4482 204.074 62.3807 203.734 62.3807C203.441 62.3807 203.138 62.453 202.826 62.5974C202.524 62.7321 202.255 62.8958 202.018 63.0883V68.3445L202.883 68.4746V69.3409H199.212V68.4746L200.006 68.359V58.7852Z" fill="#727272"/>
<path d="M211.979 69.4991C210.732 69.4991 209.802 69.1284 209.186 68.3871C208.582 67.6363 208.28 66.6159 208.28 65.3259C208.28 64.4595 208.436 63.7085 208.748 63.0732C209.069 62.4379 209.518 61.9516 210.094 61.6148C210.671 61.2778 211.337 61.1094 212.093 61.1094C213.037 61.1094 213.766 61.3644 214.276 61.8746C214.786 62.3752 215.051 63.0924 215.07 64.0262C215.07 64.6616 215.032 65.1333 214.956 65.4414H210.349C210.387 66.3174 210.59 67.0009 210.959 67.4918C211.328 67.9732 211.851 68.2139 212.532 68.2139C212.901 68.2139 213.278 68.1513 213.667 68.0262C214.063 67.901 214.375 67.7518 214.602 67.5786L214.956 68.3727C214.701 68.6519 214.285 68.9118 213.709 69.1525C213.142 69.3835 212.565 69.4991 211.979 69.4991ZM213.085 64.575C213.104 64.3055 213.114 64.0984 213.114 63.9541C213.114 62.6737 212.693 62.0335 211.852 62.0335C211.389 62.0335 211.03 62.2212 210.775 62.5967C210.519 62.9721 210.378 63.6315 210.349 64.575H213.085Z" fill="#727272"/>
<path d="M219.751 59.6963L218.617 59.5086V58.6133H226.173L226.357 61.0393H225.365L224.897 59.6097L221.835 59.4798V63.3641L223.806 63.3208L224.032 62.1367H224.939V65.6313H224.032L223.806 64.3894L221.835 64.3461V68.4182L225.266 68.245L226.088 66.3965L227.151 66.6998L226.782 69.3424H218.632V68.476L219.751 68.3316V59.6963Z" fill="#727272"/>
<path d="M227.399 65.3692C227.399 64.5413 227.559 63.8049 227.88 63.1598C228.212 62.5149 228.678 62.0143 229.284 61.6581C229.898 61.2922 230.612 61.1094 231.424 61.1094C231.802 61.1094 232.128 61.1382 232.402 61.196C232.677 61.2537 232.983 61.3307 233.324 61.427L233.735 61.5426L233.65 64.0118H232.416L232.063 62.4233C232.006 62.1731 231.727 62.048 231.226 62.048C230.697 62.048 230.281 62.2838 229.978 62.7555C229.685 63.2272 229.534 63.9637 229.525 64.9649C229.525 66.0238 229.704 66.8373 230.063 67.4052C230.423 67.9635 230.9 68.2428 231.495 68.2428C232.213 68.2428 232.875 68.0455 233.48 67.6507L233.806 68.4016C233.56 68.6712 233.182 68.9214 232.671 69.1525C232.171 69.3835 231.627 69.4991 231.041 69.4991C229.832 69.4991 228.92 69.1188 228.305 68.3583C227.701 67.5978 227.399 66.6015 227.399 65.3692Z" fill="#727272"/>
<path d="M234.508 65.3413C234.508 64.4364 234.683 63.6662 235.032 63.0309C235.392 62.3955 235.868 61.9189 236.464 61.6013C237.06 61.274 237.707 61.1104 238.406 61.1104C239.597 61.1104 240.514 61.4857 241.156 62.2366C241.809 62.9778 242.134 63.9887 242.134 65.269C242.134 66.1836 241.955 66.9634 241.596 67.6083C241.246 68.2438 240.773 68.7203 240.178 69.0379C239.592 69.346 238.945 69.5 238.236 69.5C237.054 69.5 236.138 69.1294 235.486 68.3881C234.834 67.6372 234.508 66.6216 234.508 65.3413ZM238.349 68.5614C239.417 68.5614 239.951 67.5121 239.951 65.4135C239.951 64.316 239.823 63.4832 239.569 62.9153C239.314 62.3377 238.897 62.049 238.321 62.049C237.224 62.049 236.677 63.0983 236.677 65.1968C236.677 66.2944 236.809 67.1318 237.074 67.7095C237.348 68.2775 237.773 68.5614 238.349 68.5614Z" fill="#727272"/>
<path d="M243.79 62.6845L242.883 62.4246V61.4283L245.236 61.125H245.279L245.633 61.4138V61.977L245.619 62.3236C245.95 62.0059 246.38 61.7314 246.909 61.5005C247.438 61.2694 247.972 61.1539 248.51 61.1539C249.087 61.1539 249.536 61.2646 249.858 61.486C250.188 61.6978 250.425 62.0347 250.567 62.4968C250.707 62.9589 250.778 63.5846 250.778 64.374V68.3596L251.643 68.4751V69.3415H247.987V68.4751L248.751 68.3596V64.374C248.751 63.8734 248.719 63.4835 248.652 63.2043C248.587 62.9156 248.463 62.7086 248.284 62.5834C248.114 62.4487 247.868 62.3813 247.547 62.3813C247.008 62.3813 246.432 62.6171 245.818 63.0888V68.345L246.668 68.4751V69.3415H242.968V68.4751L243.79 68.345V62.6845Z" fill="#727272"/>
<path d="M252.219 65.3413C252.219 64.4364 252.395 63.6662 252.744 63.0309C253.103 62.3955 253.581 61.9189 254.176 61.6013C254.771 61.274 255.419 61.1104 256.118 61.1104C257.308 61.1104 258.226 61.4857 258.868 62.2366C259.52 62.9778 259.846 63.9887 259.846 65.269C259.846 66.1836 259.667 66.9634 259.307 67.6083C258.958 68.2438 258.485 68.7203 257.89 69.0379C257.304 69.346 256.657 69.5 255.948 69.5C254.766 69.5 253.85 69.1294 253.198 68.3881C252.545 67.6372 252.219 66.6216 252.219 65.3413ZM256.061 68.5614C257.129 68.5614 257.663 67.5121 257.663 65.4135C257.663 64.316 257.535 63.4832 257.28 62.9153C257.025 62.3377 256.609 62.049 256.033 62.049C254.937 62.049 254.389 63.0983 254.389 65.1968C254.389 66.2944 254.521 67.1318 254.785 67.7095C255.06 68.2775 255.484 68.5614 256.061 68.5614Z" fill="#727272"/>
<path d="M260.7 68.4751L261.493 68.345V62.6845L260.586 62.4246V61.4283L262.94 61.125L263.11 61.2405L263.321 61.717V62.3236C263.633 62.0155 264.077 61.7459 264.654 61.5149C265.24 61.2742 265.745 61.1539 266.171 61.1539C266.681 61.1539 267.093 61.2405 267.405 61.4138C267.725 61.5871 267.967 61.8567 268.127 62.2224C268.439 61.9337 268.85 61.6833 269.361 61.4716C269.871 61.2597 270.372 61.1539 270.863 61.1539C271.704 61.1539 272.3 61.4042 272.649 61.9048C272.999 62.4054 273.174 63.2237 273.174 64.3596V68.345L274.095 68.4751V69.3415H270.423V68.4751L271.161 68.345V64.4173C271.161 63.6664 271.071 63.1418 270.891 62.8434C270.721 62.5353 270.391 62.3813 269.9 62.3813C269.635 62.3813 269.361 62.4439 269.077 62.569C268.803 62.6845 268.558 62.829 268.34 63.0022C268.406 63.368 268.439 63.8253 268.439 64.374V68.345L269.318 68.4751V69.3415H265.618V68.4751L266.398 68.345V64.374C266.398 63.8734 266.365 63.4835 266.299 63.2043C266.242 62.9156 266.128 62.7086 265.958 62.5834C265.788 62.4487 265.542 62.3813 265.222 62.3813C264.918 62.3813 264.616 62.4535 264.314 62.5979C264.021 62.7326 263.757 62.8963 263.52 63.0888V68.345L264.357 68.4751V69.3415H260.7V68.4751Z" fill="#727272"/>
<path d="M276.328 59.9992C275.988 59.9992 275.718 59.8981 275.52 59.6959C275.321 59.4938 275.222 59.2338 275.222 58.9162C275.222 58.5504 275.336 58.2471 275.562 58.0065C275.789 57.7658 276.092 57.6455 276.47 57.6455C276.848 57.6455 277.137 57.7513 277.334 57.9632C277.533 58.1653 277.632 58.4204 277.632 58.7284C277.632 59.1135 277.519 59.4216 277.292 59.6526C277.066 59.8837 276.748 59.9992 276.342 59.9992H276.328ZM275.577 62.6851L274.571 62.4107V61.4432L277.164 61.1255H277.192L277.589 61.4143V68.3601L278.54 68.4756V69.342H274.585V68.4756L275.577 68.3456V62.6851Z" fill="#727272"/>
<path d="M278.946 65.3692C278.946 64.5413 279.106 63.8049 279.427 63.1598C279.759 62.5149 280.225 62.0143 280.831 61.6581C281.445 61.2922 282.159 61.1094 282.971 61.1094C283.349 61.1094 283.675 61.1382 283.949 61.196C284.224 61.2537 284.53 61.3307 284.871 61.427L285.282 61.5426L285.197 64.0118H283.963L283.61 62.4233C283.553 62.1731 283.274 62.048 282.773 62.048C282.244 62.048 281.828 62.2838 281.525 62.7555C281.232 63.2272 281.081 63.9637 281.072 64.9649C281.072 66.0238 281.251 66.8373 281.61 67.4052C281.97 67.9635 282.447 68.2428 283.042 68.2428C283.76 68.2428 284.422 68.0455 285.027 67.6507L285.353 68.4016C285.107 68.6712 284.729 68.9214 284.218 69.1525C283.718 69.3835 283.174 69.4991 282.588 69.4991C281.379 69.4991 280.467 69.1188 279.852 68.3583C279.248 67.5978 278.946 66.6015 278.946 65.3692Z" fill="#727272"/>
<path d="M292.356 59.5664L290.329 59.6386L289.776 62.7866H288.585L288.825 58.6133H297.969L298.139 62.7866H297.019L296.466 59.6386L294.468 59.5664V68.3316L296.452 68.476V69.3424H290.541V68.476L292.356 68.3316V59.5664Z" fill="#727272"/>
<path d="M300.347 59.9992C300.007 59.9992 299.738 59.8981 299.54 59.6959C299.341 59.4938 299.242 59.2338 299.242 58.9162C299.242 58.5504 299.355 58.2471 299.582 58.0065C299.809 57.7658 300.111 57.6455 300.489 57.6455C300.867 57.6455 301.155 57.7513 301.354 57.9632C301.552 58.1653 301.652 58.4204 301.652 58.7284C301.652 59.1135 301.538 59.4216 301.311 59.6526C301.084 59.8837 300.768 59.9992 300.361 59.9992H300.347ZM299.596 62.6851L298.589 62.4107V61.4432L301.184 61.1255H301.212L301.609 61.4143V68.3601L302.558 68.4756V69.342H298.604V68.4756L299.596 68.3456V62.6851Z" fill="#727272"/>
<path d="M303.152 68.4751L303.946 68.345V62.6845L303.039 62.4246V61.4283L305.392 61.125L305.562 61.2405L305.775 61.717V62.3236C306.087 62.0155 306.531 61.7459 307.107 61.5149C307.693 61.2742 308.199 61.1539 308.624 61.1539C309.134 61.1539 309.545 61.2405 309.857 61.4138C310.179 61.5871 310.419 61.8567 310.58 62.2224C310.892 61.9337 311.302 61.6833 311.813 61.4716C312.324 61.2597 312.824 61.1539 313.316 61.1539C314.157 61.1539 314.752 61.4042 315.102 61.9048C315.451 62.4054 315.627 63.2237 315.627 64.3596V68.345L316.548 68.4751V69.3415H312.877V68.4751L313.613 68.345V64.4173C313.613 63.6664 313.524 63.1418 313.345 62.8434C313.175 62.5353 312.843 62.3813 312.352 62.3813C312.087 62.3813 311.813 62.4439 311.529 62.569C311.256 62.6845 311.01 62.829 310.793 63.0022C310.858 63.368 310.892 63.8253 310.892 64.374V68.345L311.77 68.4751V69.3415H308.071V68.4751L308.851 68.345V64.374C308.851 63.8734 308.817 63.4835 308.752 63.2043C308.695 62.9156 308.582 62.7086 308.411 62.5834C308.241 62.4487 307.996 62.3813 307.674 62.3813C307.372 62.3813 307.07 62.4535 306.766 62.5979C306.474 62.7326 306.209 62.8963 305.973 63.0888V68.345L306.809 68.4751V69.3415H303.152V68.4751Z" fill="#727272"/>
<path d="M320.656 69.4991C319.409 69.4991 318.478 69.1284 317.864 68.3871C317.259 67.6363 316.957 66.6159 316.957 65.3259C316.957 64.4595 317.113 63.7085 317.425 63.0732C317.745 62.4379 318.195 61.9516 318.771 61.6148C319.348 61.2778 320.013 61.1094 320.769 61.1094C321.715 61.1094 322.443 61.3644 322.952 61.8746C323.463 62.3752 323.728 63.0924 323.747 64.0262C323.747 64.6616 323.708 65.1333 323.633 65.4414H319.026C319.064 66.3174 319.267 67.0009 319.636 67.4918C320.005 67.9732 320.528 68.2139 321.209 68.2139C321.578 68.2139 321.956 68.1513 322.344 68.0262C322.741 67.901 323.052 67.7518 323.279 67.5786L323.633 68.3727C323.378 68.6519 322.962 68.9118 322.386 69.1525C321.819 69.3835 321.243 69.4991 320.656 69.4991ZM321.762 64.575C321.781 64.3055 321.791 64.0984 321.791 63.9541C321.791 62.6737 321.369 62.0335 320.528 62.0335C320.066 62.0335 319.707 62.2212 319.452 62.5967C319.196 62.9721 319.054 63.6315 319.026 64.575H321.762Z" fill="#727272"/>
<path d="M326.026 68.1575C326.102 68.2731 326.272 68.3838 326.536 68.4897C326.811 68.5859 327.085 68.6342 327.358 68.6342C327.802 68.6342 328.133 68.5426 328.351 68.3598C328.577 68.1673 328.69 67.9169 328.69 67.6088C328.69 67.2912 328.554 67.0361 328.28 66.8436C328.005 66.6414 327.543 66.3959 326.89 66.1071L326.493 65.9338C325.842 65.6546 325.355 65.3177 325.034 64.923C324.712 64.5283 324.551 64.0181 324.551 63.3923C324.551 62.9591 324.679 62.5741 324.934 62.2371C325.19 61.8906 325.549 61.6211 326.012 61.4285C326.475 61.236 327.008 61.1396 327.614 61.1396C328.058 61.1396 328.436 61.1686 328.747 61.2264C329.069 61.2841 329.404 61.3611 329.754 61.4573C329.943 61.5247 330.085 61.5632 330.18 61.5728V63.4645H329.059L328.733 62.3671C328.676 62.2708 328.549 62.1842 328.351 62.1072C328.153 62.0301 327.926 61.9916 327.67 61.9916C327.283 61.9916 326.971 62.0782 326.734 62.2516C326.507 62.4152 326.394 62.6463 326.394 62.9447C326.394 63.2143 326.475 63.4404 326.635 63.6234C326.797 63.7966 326.971 63.9314 327.16 64.0277C327.349 64.124 327.699 64.2828 328.209 64.5043C328.719 64.7256 329.14 64.9375 329.47 65.1396C329.811 65.3417 330.089 65.6065 330.307 65.9338C330.534 66.2515 330.648 66.6414 330.648 67.1034C330.648 67.8159 330.373 68.3934 329.825 68.8363C329.277 69.2791 328.488 69.5005 327.458 69.5005C326.975 69.5005 326.541 69.4572 326.154 69.3706C325.775 69.2839 325.336 69.1684 324.835 69.024L324.523 68.9229V67.0168H325.7L326.026 68.1575Z" fill="#727272"/>
</svg>
