<svg xmlns="http://www.w3.org/2000/svg" width="326" height="64" fill="none"><path fill="#FF0E00" d="M13.432 63V37.128L.144 1.4h11.792l7.48 22.44 7.48-22.44H37.72L24.432 37.128V63h-11Zm40.273.88c-10.736 0-16.632-6.16-16.632-16.632V17.152C37.073 6.592 42.969.52 53.705.52c10.824 0 16.72 6.072 16.72 16.632v30.096c0 10.472-5.896 16.632-16.72 16.632Zm0-9.768c3.608 0 5.72-2.112 5.72-6.336V16.624c0-4.312-2.112-6.336-5.72-6.336-3.608 0-5.632 2.024-5.632 6.336v31.152c0 4.224 2.024 6.336 5.632 6.336Zm37.308 9.768c-10.824 0-16.368-6.16-16.368-16.632V1.4h11v46.552c0 4.312 1.936 6.16 5.544 6.16 3.608 0 5.632-1.848 5.632-6.16V1.4h10.56v45.848c0 10.472-5.632 16.632-16.368 16.632Zm21.461-.88V1.4h16.28c11.176 0 16.28 4.84 16.28 14.872v3.08c0 6.424-2.288 10.472-7.128 12.408v.264c5.192 1.496 7.216 6.072 7.216 13.904v9.064c0 3.168.176 5.544 1.232 8.008h-11.176c-.616-1.672-.968-2.552-.968-8.096v-9.68c0-5.808-1.848-7.744-6.952-7.744h-3.784V63h-11Zm11-35.288h4.048c4.312 0 6.512-1.848 6.512-6.688v-3.608c0-4.312-1.672-6.248-5.456-6.248h-5.104v16.544Zm40.907 36.168c-10.736 0-16.192-6.248-16.192-16.192V44.52h10.384v3.52c0 4.048 1.936 6.248 5.72 6.248 3.432 0 5.72-2.024 5.72-6.336 0-5.192-2.112-7.392-9.416-12.232-9.328-6.16-12.232-11.352-12.232-19.184 0-9.856 5.632-16.016 16.28-16.016 10.648 0 15.928 6.16 15.928 16.192v2.2h-10.384v-2.464c0-4.136-1.761-6.336-5.456-6.336-3.432 0-5.456 2.024-5.456 6.072 0 4.576 2.288 6.864 9.592 11.616 9.504 6.16 12.144 11.44 12.144 19.624 0 10.208-5.808 16.456-16.632 16.456Zm28.838-.88V11.168h-11.44V1.4h33.968v9.768h-11.528V63h-11Zm40.736.88c-10.736 0-16.632-6.16-16.632-16.632V17.152c0-10.56 5.896-16.632 16.632-16.632 10.824 0 16.72 6.072 16.72 16.632v30.096c0 10.472-5.896 16.632-16.72 16.632Zm0-9.768c3.608 0 5.72-2.112 5.72-6.336V16.624c0-4.312-2.112-6.336-5.72-6.336-3.608 0-5.632 2.024-5.632 6.336v31.152c0 4.224 2.024 6.336 5.632 6.336ZM255.247 63V1.4h16.28c11.176 0 16.28 4.84 16.28 14.872v3.08c0 6.424-2.288 10.472-7.128 12.408v.264c5.192 1.496 7.216 6.072 7.216 13.904v9.064c0 3.168.176 5.544 1.232 8.008h-11.176c-.616-1.672-.968-2.552-.968-8.096v-9.68c0-5.808-1.848-7.744-6.952-7.744h-3.784V63h-11Zm11-35.288h4.048c4.312 0 6.512-1.848 6.512-6.688v-3.608c0-4.312-1.672-6.248-5.456-6.248h-5.104v16.544ZM301.471 63V37.128L288.183 1.4h11.792l7.48 22.44 7.48-22.44h10.824l-13.288 35.728V63h-11Z"/></svg>