<svg xmlns="http://www.w3.org/2000/svg" width="2048" height="2048" viewBox="0 0 24 24"><g fill="none" stroke="#f4f4f4" stroke-linecap="round" stroke-linejoin="round" stroke-width="1.5" color="#f4f4f4"><path d="M8 7.839c0-2.092 1.896-4.16 3.226-5.353a1.91 1.91 0 0 1 2.548 0C15.104 3.68 17 5.746 17 7.84C17 9.89 15.296 12 12.5 12S8 9.89 8 7.839M4 14h2.395c.294 0 .584.066.847.194l2.042.988c.263.127.553.193.848.193h1.042c1.008 0 1.826.791 1.826 1.767c0 .04-.027.074-.066.085l-2.541.703a1.95 1.95 0 0 1-1.368-.124L6.842 16.75"/><path d="m13 16.5l4.593-1.411a1.985 1.985 0 0 1 2.204.753c.369.51.219 1.242-.319 1.552l-7.515 4.337a2 2 0 0 1-1.568.187L4 20.02"/></g></svg>