<svg xmlns="http://www.w3.org/2000/svg" width="24" height="24" viewBox="0 0 24 24"><path fill="#f4f4f4" fill-rule="evenodd" d="M16.33 3.75H6.67c-.535 0-.98 0-1.345.03c-1.411.115-2.432 1.164-2.545 2.545c-.03.365-.03.812-.03 1.345v8.66c0 .535 0 .98.03 1.345c.03.38.098.736.27 1.073a2.75 2.75 0 0 0 1.202 1.202c.337.172.693.24 1.073.27c.365.03.81.03 1.344.03h9.662c.534 0 .98 0 1.344-.03c.38-.03.736-.098 1.073-.27a.75.75 0 0 0-.68-1.336c-.091.046-.228.088-.516.111c-.295.024-.68.025-1.252.025H6.7c-.572 0-.957 0-1.253-.025c-.287-.023-.424-.065-.514-.111a1.25 1.25 0 0 1-.547-.547c-.046-.09-.088-.227-.111-.515c-.024-.295-.025-.68-.025-1.252V8.25h14.486q.012.625.014 1.25a.75.75 0 1 0 1.5 0q0-.28-.003-.558c-.007-.67-.027-1.807-.091-2.618c-.113-1.424-1.072-2.43-2.481-2.544c-.365-.03-.81-.03-1.345-.03m2.352 3c-.048-.797-.278-1.406-1.13-1.475c-.295-.024-.68-.025-1.252-.025H6.7c-.572 0-.957 0-1.253.025c-.818.067-1.163.68-1.189 1.475z" clip-rule="evenodd"/><path fill="#f4f4f4" d="M6.5 9.25a.75.75 0 0 0 0 1.5h6a.75.75 0 0 0 0-1.5z"/><path fill="#f4f4f4" fill-rule="evenodd" d="M17 10.25a3.25 3.25 0 1 0 1.706 6.017l1.264 1.263a.75.75 0 1 0 1.06-1.06l-1.263-1.264A3.25 3.25 0 0 0 17 10.25m-1.75 3.25a1.75 1.75 0 1 1 3.5 0a1.75 1.75 0 0 1-3.5 0" clip-rule="evenodd"/><path fill="#f4f4f4" d="M6.5 11.25a.75.75 0 0 0 0 1.5h3a.75.75 0 0 0 0-1.5zm0 3a.75.75 0 0 0 0 1.5h5a.75.75 0 0 0 0-1.5zm0 2a.75.75 0 0 0 0 1.5h3a.75.75 0 0 0 0-1.5z"/></svg>